<?xml version="1.0" standalone="no"?>
<!DOCTYPE svg PUBLIC "-//W3C//DTD SVG 20010904//EN"
 "http://www.w3.org/TR/2001/REC-SVG-20010904/DTD/svg10.dtd">
<svg version="1.0" xmlns="http://www.w3.org/2000/svg"
 width="512.000000pt" height="512.000000pt" viewBox="0 0 512.000000 512.000000"
 preserveAspectRatio="xMidYMid meet">

<g transform="translate(0.000000,512.000000) scale(0.100000,-0.100000)"
fill="hsl(45, 100%, 72%)" stroke="none">
<path d="M2445 4671 c-27 -9 -401 -220 -830 -467 -865 -500 -879 -509 -924
-627 l-21 -59 2 -976 3 -977 24 -45 c35 -66 67 -105 109 -132 113 -75 1613
-933 1651 -945 61 -18 156 -16 216 5 40 15 947 533 1530 875 132 77 172 113
213 191 l27 51 0 995 0 995 -27 51 c-41 78 -81 114 -213 191 -583 342 -1490
860 -1530 875 -65 23 -166 22 -230 -1z m301 -862 c289 -40 577 -197 769 -419
55 -63 135 -176 135 -189 0 -3 -22 -19 -48 -35 -87 -54 -473 -286 -476 -286
-2 0 -16 19 -31 42 -145 218 -417 330 -669 274 -296 -66 -506 -328 -506 -631
0 -289 202 -544 482 -610 82 -19 228 -19 303 0 137 36 274 125 347 225 24 33
48 58 54 57 17 -3 543 -311 544 -318 0 -14 -81 -127 -137 -190 -245 -277 -581
-429 -948 -429 -619 0 -1145 449 -1247 1064 -15 91 -15 301 0 392 88 533 509
960 1033 1048 103 17 291 20 395 5z m944 -1109 l0 -70 70 0 70 0 0 -47 c0 -90
-3 -93 -81 -93 l-69 0 0 -70 0 -70 -70 0 -70 0 0 70 0 70 -65 0 -65 0 0 70 0
70 70 0 70 0 0 70 0 70 70 0 70 0 0 -70z m520 0 l0 -70 70 0 70 0 0 -70 0 -70
-70 0 -70 0 0 -70 0 -70 -70 0 -70 0 0 70 0 70 -70 0 -70 0 0 70 0 70 70 0 70
0 0 70 0 70 70 0 70 0 0 -70z"/>
</g>
</svg>
