<?xml version="1.0" standalone="no"?>
<!DOCTYPE svg PUBLIC "-//W3C//DTD SVG 20010904//EN"
 "http://www.w3.org/TR/2001/REC-SVG-20010904/DTD/svg10.dtd">
<svg version="1.0" xmlns="http://www.w3.org/2000/svg"
 width="411.000000pt" height="278.000000pt" viewBox="0 0 411.000000 278.000000"
 preserveAspectRatio="xMidYMid meet">

<g transform="translate(0.000000,278.000000) scale(0.100000,-0.100000)"
fill="hsl(45, 100%, 72%)" stroke="none">
<path d="M1812 2700 c-47 -170 -124 -327 -206 -417 -44 -49 -71 -64 -125 -72
-12 -1 -22 -41 -10 -41 5 0 9 -7 9 -15 0 -22 -66 -16 -109 9 -40 23 -38 18 29
-69 59 -75 89 -122 73 -112 -18 11 -16 -3 4 -27 9 -12 -30 26 -85 84 l-102
105 42 -86 c24 -48 51 -90 60 -95 11 -6 14 -14 10 -21 -16 -25 -81 45 -126
136 -44 85 -228 397 -247 416 -6 6 8 -29 30 -76 42 -89 101 -296 101 -353 0
-39 27 -60 155 -120 189 -90 308 -126 388 -119 88 7 298 92 376 152 l34 26
-18 -35 c-10 -19 -27 -48 -38 -63 -26 -38 -66 -200 -69 -286 -4 -95 -18 -66
-18 37 0 46 -4 82 -8 80 -15 -5 -122 -125 -122 -136 0 -5 20 -15 45 -22 66
-19 47 -24 -21 -6 -51 13 -76 14 -63 2 2 -2 49 -18 104 -34 88 -27 95 -31 59
-31 -23 -1 -57 -3 -75 -6 -29 -4 -30 -3 -9 4 21 8 22 9 5 11 -11 1 -43 3 -71
6 -47 4 -54 2 -73 -22 -16 -21 -20 -36 -16 -58 4 -22 3 -27 -4 -17 -7 11 -11
2 -16 -34 -6 -37 -4 -54 9 -76 10 -16 13 -29 7 -29 -17 0 -13 -19 8 -47 11
-13 17 -31 14 -39 -5 -12 -11 -10 -32 10 -34 33 -41 33 -41 0 0 -14 -18 -132
-39 -262 -22 -130 -42 -254 -45 -276 -4 -21 -10 -45 -14 -53 -5 -8 -1 -36 9
-66 10 -29 23 -90 29 -137 6 -47 15 -105 20 -130 7 -41 8 -37 10 40 2 88 10
132 23 131 4 -1 8 2 9 7 0 4 7 22 15 40 11 27 12 37 1 50 -7 10 -8 13 -3 9 5
-4 16 19 26 55 20 70 89 204 119 229 10 9 16 20 12 24 -4 5 -1 5 6 1 7 -5 11
-15 7 -24 -3 -9 -3 -13 1 -9 4 4 18 -9 31 -28 28 -41 43 -45 43 -11 0 14 4 27
9 30 4 3 6 -6 3 -20 -2 -14 -1 -24 4 -23 18 5 100 -24 169 -58 100 -51 161
-92 234 -158 l63 -59 -31 62 c-71 141 -113 372 -77 428 13 19 24 25 42 21 13
-2 21 0 18 4 -19 32 257 21 402 -16 54 -14 101 -25 104 -24 9 0 -194 79 -325
125 -71 25 -132 49 -135 53 -3 4 -18 16 -35 25 l-30 17 30 -5 c17 -3 41 -8 55
-12 19 -5 16 0 -15 21 -65 45 -64 49 5 15 69 -34 70 -30 5 14 -30 21 -34 26
-15 21 14 -4 29 -11 34 -16 6 -5 18 -9 28 -9 10 0 18 -5 18 -12 0 -6 3 -9 6
-5 3 3 -5 21 -19 39 -51 69 -59 86 -45 94 7 4 10 4 7 0 -4 -4 3 -17 15 -29 11
-13 37 -40 56 -62 32 -36 112 -107 165 -145 15 -11 13 -7 -5 15 -14 17 -34 41
-45 54 -11 14 -32 37 -47 53 -14 15 -23 28 -20 28 4 1 -3 9 -16 20 -13 10 -23
21 -22 25 0 3 -6 18 -15 34 -20 39 -35 110 -24 116 4 3 5 13 2 22 -4 10 -2 14
5 9 6 -3 13 3 17 14 3 11 11 20 16 20 5 0 9 6 9 14 0 8 14 24 30 36 17 12 28
26 25 31 -4 5 0 7 7 4 7 -3 32 13 56 35 24 22 46 40 49 40 4 0 15 7 25 16 10
9 58 38 107 63 l89 46 -166 1 c-255 1 -374 34 -400 110 -26 75 27 289 109 444
l51 95 -39 -36 c-110 -104 -320 -223 -413 -235 -40 -5 -50 -3 -77 20 -18 15
-43 51 -57 80 -39 81 -85 260 -94 361 l-8 90 -12 -45z m-323 -774 c8 -2 17 -8
19 -15 3 -9 -7 -7 -29 4 -40 20 -53 31 -24 21 11 -5 27 -9 34 -10z m1047 -296
c0 -11 -3 -20 -7 -20 -4 0 -24 -17 -45 -37 -20 -21 -44 -37 -53 -35 -14 2 -14
2 -1 -8 10 -6 11 -13 5 -17 -15 -11 -13 -32 5 -43 27 -17 0 -10 -40 10 -45 23
-53 35 -14 20 15 -6 23 -6 19 -1 -3 5 -1 12 5 16 6 4 8 10 5 15 -3 4 14 24 38
44 23 20 51 45 61 56 24 24 22 24 22 0z m-733 -147 c-13 -2 -33 -2 -45 0 -13
2 -3 4 22 4 25 0 35 -2 23 -4z m-36 -205 c-3 -8 -6 -5 -6 6 -1 11 2 17 5 13 3
-3 4 -12 1 -19z m96 -98 c3 -41 2 -54 -3 -35 -8 31 -13 112 -6 104 2 -2 6 -33
9 -69z m32 -311 c22 -66 13 -73 -14 -10 -24 56 -25 61 -12 61 5 0 17 -23 26
-51z m-260 -42 c-14 -34 -30 -53 -20 -24 19 54 26 69 30 65 3 -3 -2 -21 -10
-41z"/>
<path d="M1410 2043 c24 -29 45 -53 47 -53 8 0 -35 55 -63 80 -16 14 -9 2 16
-27z"/>
<path d="M1127 1957 c-27 -21 -39 -22 -185 -22 -116 0 -172 5 -217 17 -32 10
-60 16 -62 14 -2 -1 22 -20 53 -41 69 -48 188 -175 233 -250 22 -35 36 -73 39
-103 4 -44 1 -52 -37 -100 -57 -72 -218 -193 -332 -250 l-96 -49 156 5 156 4
82 54 c46 29 89 51 96 48 8 -3 41 16 73 41 88 68 104 78 111 71 4 -3 -6 -19
-20 -34 -15 -16 -25 -31 -22 -33 2 -3 71 12 152 33 248 63 235 50 -52 -52
-177 -62 -222 -80 -203 -80 16 0 415 143 427 153 14 12 101 37 101 30 0 -2
-11 -26 -25 -53 -14 -28 -22 -50 -18 -50 4 0 38 30 75 67 38 37 68 65 68 61 0
-3 -25 -38 -56 -78 -30 -40 -54 -73 -52 -75 2 -2 23 11 47 29 45 34 76 94 65
129 -4 14 -13 17 -37 13 -22 -4 -19 -1 12 9 24 8 46 16 48 19 2 2 -5 37 -17
77 -11 40 -20 85 -20 99 -1 21 -3 19 -15 -13 -26 -76 -39 -64 -19 18 16 71 17
88 4 80 -5 -3 -6 -13 -3 -22 4 -10 2 -14 -4 -10 -5 3 -20 -19 -33 -51 -23 -54
-24 -55 -31 -29 -5 18 -2 44 7 69 8 22 14 44 14 48 0 4 -35 20 -77 35 -43 15
-84 32 -91 37 -22 19 -23 2 -1 -25 38 -50 4 -28 -61 39 -36 36 -74 70 -85 76
-19 10 8 -20 200 -221 95 -99 62 -78 -65 43 -41 39 -85 79 -97 90 l-22 19 16
-42 c12 -32 14 -44 5 -53 -9 -9 -16 -2 -29 30 -16 42 -42 57 -44 25 0 -10 -11
11 -23 47 -21 60 -53 131 -59 129 -1 0 -15 -10 -30 -22z m268 -377 c-71 -13
-139 -20 -132 -13 10 10 77 21 127 21 l45 0 -40 -8z"/>
<path d="M1983 1863 c-46 -54 -168 -218 -187 -253 -8 -13 -7 -13 6 0 36 37
243 310 234 310 -2 0 -26 -26 -53 -57z"/>
<path d="M1979 1793 c-13 -16 -12 -17 4 -4 9 7 17 15 17 17 0 8 -8 3 -21 -13z"/>
<path d="M1810 1768 c-36 -12 -67 -22 -69 -24 -6 -6 30 -83 44 -94 10 -8 24 7
56 57 24 37 46 71 47 76 5 10 -2 8 -78 -15z"/>
<path d="M1695 1750 c9 -16 18 -30 21 -30 2 0 -2 14 -11 30 -9 17 -18 30 -21
30 -2 0 2 -13 11 -30z"/>
<path d="M1700 1619 c-1 -36 13 -109 21 -109 20 0 20 49 0 86 -11 22 -20 32
-21 23z"/>
<path d="M1300 1293 l-115 -47 88 -13 c48 -7 92 -15 98 -18 9 -6 59 92 59 115
0 15 -5 13 -130 -37z"/>
<path d="M1612 1070 c-17 -91 -36 -196 -42 -235 -5 -38 -12 -81 -15 -95 -4
-18 -3 -21 4 -10 11 19 93 478 88 493 -2 7 -18 -62 -35 -153z"/>
<path d="M1552 1154 c-30 -19 -51 -40 -49 -47 3 -7 18 -48 33 -92 l27 -80 28
120 c15 66 28 123 28 128 1 13 -13 7 -67 -29z"/>
<path d="M1030 1151 c93 -28 117 -69 106 -180 -8 -92 -31 -173 -71 -258 -19
-40 -32 -73 -31 -73 2 0 26 18 52 41 93 77 288 156 355 142 16 -3 36 -15 44
-27 22 -30 19 -12 -15 96 -56 178 -109 226 -277 254 -95 15 -209 19 -163 5z"/>
<path d="M1543 850 c0 -25 2 -35 4 -22 2 12 2 32 0 45 -2 12 -4 2 -4 -23z"/>
<path d="M1727 643 c-4 -3 -7 -16 -6 -27 0 -19 1 -19 10 3 10 24 8 36 -4 24z"/>
<path d="M2475 364 c-36 -11 -38 -13 -17 -20 12 -3 22 -12 22 -19 0 -12 -43
-229 -55 -277 -6 -23 -4 -26 14 -21 15 4 23 18 31 58 11 55 65 125 95 125 19
0 19 -2 -1 -89 -18 -80 -14 -107 13 -92 36 20 58 40 51 47 -4 4 -15 1 -24 -7
-16 -13 -17 -12 -11 11 4 14 12 51 18 82 19 97 0 110 -75 53 -43 -32 -46 -33
-41 -13 21 92 33 164 27 169 -4 3 -25 0 -47 -7z"/>
<path d="M660 360 c-17 -5 -19 -8 -7 -9 15 -1 17 -15 17 -151 0 -131 -2 -150
-17 -159 -14 -8 -5 -10 37 -10 48 0 53 1 38 13 -16 12 -18 32 -18 170 0 166 1
162 -50 146z"/>
<path d="M834 353 c-28 -23 -44 -55 -44 -87 0 -16 -6 -26 -15 -26 -8 0 -15 -4
-15 -10 0 -5 7 -10 15 -10 24 0 22 -158 -2 -176 -16 -12 -11 -13 37 -14 52 0
53 1 32 16 -20 13 -22 24 -22 95 l0 79 30 0 c17 0 30 5 30 10 0 6 -13 10 -30
10 -25 0 -30 4 -30 24 0 12 5 38 11 55 12 34 24 36 73 16 14 -6 17 -4 14 11
-4 26 -56 30 -84 7z"/>
<path d="M3620 341 c0 -27 19 -36 37 -18 18 18 9 37 -18 37 -12 0 -19 -7 -19
-19z"/>
<path d="M30 338 c0 -3 8 -8 17 -10 13 -2 30 -42 63 -146 25 -79 50 -144 55
-144 6 0 26 50 45 111 19 61 37 111 40 111 3 0 23 -52 45 -115 22 -63 43 -115
47 -115 4 0 21 46 38 103 48 158 60 188 84 197 25 10 25 10 -36 15 -27 2 -48
-1 -48 -6 0 -5 7 -9 15 -9 21 0 19 -18 -12 -134 -31 -115 -25 -119 -84 52 -18
50 -35 92 -39 92 -3 0 -21 -50 -40 -110 -18 -61 -36 -113 -40 -115 -7 -4 -70
180 -70 204 0 6 7 11 15 11 8 0 15 4 15 8 0 5 -25 9 -55 8 -30 -1 -55 -4 -55
-8z"/>
<path d="M1710 340 c0 -5 7 -10 15 -10 21 0 19 -35 -5 -133 -33 -132 -40 -147
-61 -147 -10 0 -19 -4 -19 -10 0 -6 27 -10 61 -10 37 0 58 4 54 10 -3 6 -13
10 -21 10 -8 0 -14 10 -14 24 0 24 36 185 43 192 1 2 16 -48 31 -111 15 -63
31 -117 36 -120 4 -2 42 52 85 120 42 69 78 125 80 125 3 0 -33 -200 -40 -217
-2 -7 -11 -13 -19 -13 -8 0 -18 -5 -21 -10 -4 -6 18 -10 59 -10 37 0 66 4 66
10 0 6 -6 10 -14 10 -8 0 -17 3 -19 7 -3 5 5 64 17 133 18 109 24 126 44 135
33 15 27 25 -17 25 -42 0 -37 6 -166 -199 -33 -53 -32 -54 -70 92 l-28 107
-39 0 c-21 0 -38 -4 -38 -10z"/>
<path d="M2352 270 c-9 -16 -25 -30 -34 -30 -9 0 -20 -4 -23 -10 -3 -5 3 -10
14 -10 25 0 26 -7 5 -99 -16 -70 -14 -101 5 -101 14 0 83 61 76 68 -3 3 -14
-3 -25 -13 -11 -10 -23 -16 -25 -13 -3 3 2 39 12 79 16 66 21 74 43 77 40 6
48 22 11 22 -31 0 -32 1 -26 30 9 40 -10 40 -33 0z"/>
<path d="M3498 289 c-10 -5 -18 -17 -18 -25 0 -8 -12 -20 -27 -26 -22 -9 -24
-12 -10 -15 21 -5 21 -13 2 -102 -14 -68 -12 -101 6 -101 13 0 81 62 74 68 -3
3 -14 -3 -25 -13 -11 -10 -22 -16 -25 -14 -2 3 4 38 13 79 15 67 20 75 42 78
39 6 48 22 12 22 -30 0 -31 2 -25 30 6 33 6 34 -19 19z"/>
<path d="M494 236 c-43 -19 -64 -53 -64 -104 0 -120 167 -142 199 -27 25 92
-53 167 -135 131z m62 -14 c36 -24 47 -131 17 -164 -42 -46 -103 5 -103 87 0
65 44 105 86 77z"/>
<path d="M920 234 c-19 -7 -27 -13 -17 -13 15 -1 17 -12 17 -86 0 -69 -3 -86
-17 -94 -14 -8 -3 -10 42 -10 50 0 56 2 38 11 -21 10 -23 18 -23 78 0 74 13
97 50 85 24 -7 39 20 21 38 -8 8 -18 5 -40 -11 -28 -20 -30 -20 -33 -3 -3 16
-6 17 -38 5z"/>
<path d="M1104 231 c-46 -21 -60 -36 -43 -47 6 -3 21 6 34 22 20 24 27 27 42
18 10 -6 19 -22 21 -37 3 -22 -4 -28 -52 -50 -46 -21 -56 -30 -56 -51 0 -48
47 -70 90 -43 14 8 23 9 28 2 4 -6 43 -12 87 -13 68 -3 77 -1 62 10 -15 11
-17 26 -15 88 3 72 4 75 31 84 48 17 62 0 65 -84 2 -60 0 -74 -15 -86 -16 -12
-12 -13 31 -14 47 0 49 1 32 19 -13 15 -16 34 -14 87 3 65 4 69 31 78 48 17
62 0 65 -85 2 -61 0 -76 -14 -86 -15 -11 -10 -13 37 -13 41 1 50 3 37 11 -15
8 -18 24 -18 88 0 108 -30 139 -100 103 -34 -17 -36 -17 -62 2 -27 19 -30 19
-63 3 -43 -21 -45 -21 -45 -3 0 12 -6 12 -37 3 -23 -7 -31 -13 -20 -15 14 -3
17 -16 17 -87 0 -80 -12 -114 -30 -85 -4 6 -11 11 -16 11 -5 -1 -11 35 -14 80
-4 65 -9 83 -24 95 -24 17 -22 18 -72 -5z m56 -121 c0 -45 -29 -71 -56 -49
-24 19 -16 48 19 69 17 11 33 20 35 20 1 0 2 -18 2 -40z"/>
<path d="M2144 225 c-47 -28 -79 -87 -79 -147 0 -67 35 -67 105 -2 l25 23 -3
-39 c-2 -22 -1 -40 2 -40 11 0 76 45 76 53 0 11 -15 8 -28 -5 -16 -16 -16 3 3
93 12 58 13 74 3 81 -23 14 -62 8 -104 -17z m72 -25 c-3 -11 -9 -30 -12 -42
-6 -24 -72 -98 -86 -98 -12 0 -10 64 3 97 16 43 39 63 71 63 25 0 28 -3 24
-20z"/>
<path d="M2733 234 c-70 -35 -103 -149 -57 -195 19 -19 26 -20 55 -10 41 14
86 47 77 56 -3 4 -18 -1 -32 -10 -37 -25 -71 -17 -71 17 0 23 9 32 55 55 45
23 56 33 58 57 6 46 -28 58 -85 30z m47 -34 c0 -18 -51 -60 -73 -60 -12 0 2
41 21 63 21 24 52 22 52 -3z"/>
<path d="M2874 228 c-16 -12 -31 -23 -33 -25 -2 -2 -1 -6 2 -9 4 -4 13 -1 22
6 19 16 19 13 -4 -87 -18 -80 -18 -83 -1 -83 19 0 23 8 35 69 8 36 69 111 91
111 18 0 17 -20 -5 -108 l-19 -73 21 3 c17 2 23 13 30 48 5 25 20 60 34 78 24
32 68 60 78 51 2 -3 -5 -40 -16 -83 -25 -96 -21 -113 19 -92 16 8 35 22 42 31
12 14 11 16 -12 10 l-26 -7 19 77 c30 115 15 131 -65 70 l-46 -35 0 35 c0 19
-5 35 -11 35 -18 0 -53 -21 -86 -52 l-31 -30 5 41 c6 47 -2 51 -43 19z"/>
<path d="M3295 238 c-62 -34 -97 -89 -98 -155 -1 -72 31 -74 103 -7 l26 24 -4
-34 c-2 -18 0 -36 5 -39 11 -7 73 31 73 44 0 13 -14 11 -28 -3 -16 -16 -16 -6
3 83 9 40 13 79 11 86 -6 16 -63 17 -91 1z m51 -40 c-3 -13 -6 -29 -6 -36 0
-14 -78 -102 -91 -102 -12 0 -11 63 2 97 16 43 39 63 72 63 26 0 29 -3 23 -22z"/>
<path d="M3598 228 c-21 -12 -38 -26 -38 -30 0 -12 14 -10 28 4 17 17 16 -1
-5 -90 -21 -89 -12 -102 40 -65 36 25 47 43 28 43 -6 0 -13 -5 -16 -10 -17
-28 -22 -3 -9 52 32 135 33 132 -28 96z"/>
<path d="M3752 230 c-46 -28 -72 -76 -72 -132 0 -39 4 -50 24 -63 26 -17 65
-8 98 22 27 24 22 36 -6 17 -14 -8 -35 -14 -48 -12 -19 2 -24 10 -26 40 -4 43
20 106 44 115 9 3 26 1 37 -6 23 -15 43 -1 34 23 -9 22 -45 20 -85 -4z"/>
<path d="M3935 236 c-59 -26 -95 -85 -95 -155 0 -69 30 -72 97 -8 l32 30 -5
-35 c-4 -20 -2 -38 3 -41 11 -7 73 31 73 44 0 13 -14 11 -28 -3 -15 -15 -15
-12 4 79 8 41 13 81 10 89 -7 18 -52 17 -91 0z m50 -48 c-14 -68 -87 -150
-101 -113 -9 22 3 75 26 113 15 25 26 32 51 32 29 0 30 -1 24 -32z"/>
<path d="M4066 223 c-6 -14 -5 -15 5 -6 7 7 10 15 7 18 -3 3 -9 -2 -12 -12z"/>
</g>
</svg>
